<svg width="99" height="25" viewBox="0 0 99 25" fill="none" xmlns="http://www.w3.org/2000/svg">
<path d="M14.9945 7.68374H15.8711C17.4891 7.68374 18.8008 8.99542 18.8008 10.6134V14.5197C18.8008 16.1377 17.4891 17.4494 15.8711 17.4494H6.10547C4.48746 17.4494 3.17578 16.1377 3.17578 14.5197V10.6134C3.17578 8.99542 4.48746 7.68374 6.10547 7.68374H6.98203L6.62523 5.54307C6.54543 5.06428 6.86891 4.61143 7.3477 4.53163C7.82648 4.45182 8.27934 4.7753 8.35914 5.25409L8.74977 7.59784C8.75457 7.62659 8.75789 7.65526 8.75984 7.68374H13.2167C13.2187 7.65522 13.222 7.62659 13.2268 7.59784L13.6174 5.25409C13.6972 4.7753 14.1501 4.45182 14.6289 4.53163C15.1077 4.61143 15.4311 5.06428 15.3513 5.54307L14.9945 7.68374ZM6.10547 9.03837C5.45824 9.03837 4.60915 9.56302 4.60915 10.2102V14.9302C4.60915 15.5774 5.45824 16.1021 6.10547 16.1021L15.8711 16.1021C16.5183 16.1021 17.4198 15.5774 17.4198 14.9302V10.2102C17.4198 9.56302 16.5183 9.03837 15.8711 9.03837L6.10547 9.03837ZM7.08203 19.9531C6.59664 19.9531 6.20312 19.7512 6.20312 19.2658C6.20312 18.7804 6.59664 18.5157 7.08203 18.5157H14.8945C15.3799 18.5157 15.7734 18.7804 15.7734 19.2658C15.7734 19.7512 15.3799 19.9531 14.8945 19.9531H7.08203ZM7.00391 11.7853C7.00391 11.2999 7.39742 10.9064 7.88281 10.9064C8.3682 10.9064 8.76172 11.2999 8.76172 11.7853V12.5665C8.76172 13.0519 8.3682 13.4455 7.88281 13.4455C7.39742 13.4455 7.00391 13.0519 7.00391 12.5665V11.7853ZM13.2148 11.7853C13.2148 11.2999 13.6084 10.9064 14.0938 10.9064C14.5791 10.9064 14.9727 11.2999 14.9727 11.7853V12.5665C14.9727 13.0519 14.5791 13.4455 14.0938 13.4455C13.6084 13.4455 13.2148 13.0519 13.2148 12.5665V11.7853Z" fill="url(#paint0_linear_137_37601)"/>
<path d="M26.1643 17.444C25.9403 17.444 25.7583 17.3927 25.6183 17.29C25.4876 17.1874 25.4083 17.052 25.3803 16.884C25.3523 16.7067 25.3849 16.5107 25.4783 16.296L29.1743 8.10603C29.2956 7.83536 29.4403 7.64403 29.6083 7.53203C29.7856 7.4107 29.9863 7.35003 30.2103 7.35003C30.4249 7.35003 30.6163 7.4107 30.7843 7.53203C30.9616 7.64403 31.1109 7.83536 31.2323 8.10603L34.9423 16.296C35.0449 16.5107 35.0823 16.7067 35.0543 16.884C35.0263 17.0614 34.9469 17.2014 34.8163 17.304C34.6856 17.3974 34.5129 17.444 34.2983 17.444C34.0369 17.444 33.8316 17.3834 33.6823 17.262C33.5423 17.1314 33.4163 16.9354 33.3043 16.674L32.3943 14.56L33.1503 15.05H27.2423L27.9983 14.56L27.1023 16.674C26.9809 16.9447 26.8549 17.1407 26.7243 17.262C26.5936 17.3834 26.4069 17.444 26.1643 17.444ZM30.1823 9.40803L28.2223 14.07L27.8583 13.622H32.5343L32.1843 14.07L30.2103 9.40803H30.1823ZM37.3803 17.444C37.0909 17.444 36.8669 17.3647 36.7083 17.206C36.5589 17.038 36.4843 16.8094 36.4843 16.52V8.27403C36.4843 7.97536 36.5589 7.7467 36.7083 7.58803C36.8669 7.42936 37.0909 7.35003 37.3803 7.35003C37.6696 7.35003 37.8889 7.42936 38.0383 7.58803C38.1969 7.7467 38.2763 7.97536 38.2763 8.27403V16.52C38.2763 16.8094 38.2016 17.038 38.0523 17.206C37.9029 17.3647 37.6789 17.444 37.3803 17.444ZM44.3342 17.444C44.1102 17.444 43.9282 17.3927 43.7882 17.29C43.6575 17.1874 43.5782 17.052 43.5502 16.884C43.5222 16.7067 43.5549 16.5107 43.6482 16.296L47.3442 8.10603C47.4655 7.83536 47.6102 7.64403 47.7782 7.53203C47.9555 7.4107 48.1562 7.35003 48.3802 7.35003C48.5949 7.35003 48.7862 7.4107 48.9542 7.53203C49.1315 7.64403 49.2809 7.83536 49.4022 8.10603L53.1122 16.296C53.2149 16.5107 53.2522 16.7067 53.2242 16.884C53.1962 17.0614 53.1169 17.2014 52.9862 17.304C52.8555 17.3974 52.6829 17.444 52.4682 17.444C52.2069 17.444 52.0015 17.3834 51.8522 17.262C51.7122 17.1314 51.5862 16.9354 51.4742 16.674L50.5642 14.56L51.3202 15.05H45.4122L46.1682 14.56L45.2722 16.674C45.1509 16.9447 45.0249 17.1407 44.8942 17.262C44.7635 17.3834 44.5769 17.444 44.3342 17.444ZM48.3522 9.40803L46.3922 14.07L46.0282 13.622H50.7042L50.3542 14.07L48.3802 9.40803H48.3522ZM55.3542 17.444C55.0742 17.444 54.8595 17.3694 54.7102 17.22C54.5608 17.0614 54.4862 16.8374 54.4862 16.548V11.256C54.4862 10.9667 54.5608 10.7474 54.7102 10.598C54.8595 10.4487 55.0695 10.374 55.3402 10.374C55.6108 10.374 55.8208 10.4487 55.9702 10.598C56.1195 10.7474 56.1942 10.9667 56.1942 11.256V12.208L56.0402 11.858C56.2455 11.3634 56.5628 10.99 56.9922 10.738C57.4308 10.4767 57.9255 10.346 58.4762 10.346C59.0268 10.346 59.4795 10.4487 59.8342 10.654C60.1888 10.8594 60.4548 11.172 60.6322 11.592C60.8095 12.0027 60.8982 12.5254 60.8982 13.16V16.548C60.8982 16.8374 60.8235 17.0614 60.6742 17.22C60.5248 17.3694 60.3102 17.444 60.0302 17.444C59.7502 17.444 59.5308 17.3694 59.3722 17.22C59.2228 17.0614 59.1482 16.8374 59.1482 16.548V13.244C59.1482 12.712 59.0455 12.3247 58.8402 12.082C58.6442 11.8394 58.3362 11.718 57.9162 11.718C57.4028 11.718 56.9922 11.8814 56.6842 12.208C56.3855 12.5254 56.2362 12.95 56.2362 13.482V16.548C56.2362 17.1454 55.9422 17.444 55.3542 17.444ZM64.9296 17.472C64.435 17.472 63.9916 17.3787 63.5996 17.192C63.217 16.996 62.9136 16.7347 62.6896 16.408C62.475 16.0814 62.3676 15.7127 62.3676 15.302C62.3676 14.798 62.4983 14.4014 62.7596 14.112C63.021 13.8134 63.4456 13.5987 64.0336 13.468C64.6216 13.3374 65.4103 13.272 66.3996 13.272H67.0996V14.28H66.4136C65.835 14.28 65.373 14.308 65.0276 14.364C64.6823 14.42 64.435 14.518 64.2856 14.658C64.1456 14.7887 64.0756 14.9754 64.0756 15.218C64.0756 15.526 64.183 15.778 64.3976 15.974C64.6123 16.17 64.911 16.268 65.2936 16.268C65.6016 16.268 65.8723 16.198 66.1056 16.058C66.3483 15.9087 66.5396 15.708 66.6796 15.456C66.8196 15.204 66.8896 14.9147 66.8896 14.588V12.978C66.8896 12.5114 66.787 12.1754 66.5816 11.97C66.3763 11.7647 66.031 11.662 65.5456 11.662C65.275 11.662 64.981 11.6947 64.6636 11.76C64.3556 11.8254 64.029 11.9374 63.6836 12.096C63.5063 12.18 63.3476 12.2034 63.2076 12.166C63.077 12.1287 62.9743 12.054 62.8996 11.942C62.825 11.8207 62.7876 11.69 62.7876 11.55C62.7876 11.41 62.825 11.2747 62.8996 11.144C62.9743 11.004 63.1003 10.9014 63.2776 10.836C63.707 10.6587 64.1176 10.5327 64.5096 10.458C64.911 10.3834 65.275 10.346 65.6016 10.346C66.2736 10.346 66.8243 10.4487 67.2536 10.654C67.6923 10.8594 68.019 11.172 68.2336 11.592C68.4483 12.0027 68.5556 12.5347 68.5556 13.188V16.548C68.5556 16.8374 68.4856 17.0614 68.3456 17.22C68.2056 17.3694 68.005 17.444 67.7436 17.444C67.4823 17.444 67.277 17.3694 67.1276 17.22C66.9876 17.0614 66.9176 16.8374 66.9176 16.548V15.876H67.0296C66.9643 16.2027 66.8336 16.4874 66.6376 16.73C66.451 16.9634 66.213 17.1454 65.9236 17.276C65.6343 17.4067 65.303 17.472 64.9296 17.472ZM72.6699 17.472C71.8952 17.472 71.3119 17.2527 70.9199 16.814C70.5279 16.366 70.3319 15.7127 70.3319 14.854V8.23203C70.3319 7.9427 70.4065 7.72336 70.5559 7.57403C70.7052 7.4247 70.9199 7.35003 71.1999 7.35003C71.4799 7.35003 71.6945 7.4247 71.8439 7.57403C72.0025 7.72336 72.0819 7.9427 72.0819 8.23203V14.77C72.0819 15.1994 72.1705 15.5167 72.3479 15.722C72.5345 15.9274 72.7959 16.03 73.1319 16.03C73.2065 16.03 73.2765 16.03 73.3419 16.03C73.4072 16.0207 73.4725 16.0114 73.5379 16.002C73.6685 15.9834 73.7572 16.0207 73.8039 16.114C73.8505 16.198 73.8739 16.3754 73.8739 16.646C73.8739 16.8794 73.8272 17.0614 73.7339 17.192C73.6405 17.3227 73.4865 17.402 73.2719 17.43C73.1785 17.4394 73.0805 17.4487 72.9779 17.458C72.8752 17.4674 72.7725 17.472 72.6699 17.472ZM76.3608 19.964C76.1555 19.964 75.9875 19.908 75.8568 19.796C75.7262 19.6934 75.6468 19.5534 75.6188 19.376C75.6002 19.1987 75.6328 19.012 75.7168 18.816L76.6688 16.702V17.43L74.1208 11.536C74.0368 11.3307 74.0088 11.1394 74.0368 10.962C74.0648 10.7847 74.1488 10.6447 74.2888 10.542C74.4382 10.43 74.6388 10.374 74.8908 10.374C75.1055 10.374 75.2782 10.4254 75.4088 10.528C75.5395 10.6214 75.6562 10.8034 75.7588 11.074L77.6488 15.792H77.2288L79.1608 11.06C79.2635 10.7987 79.3848 10.6214 79.5248 10.528C79.6648 10.4254 79.8515 10.374 80.0848 10.374C80.2902 10.374 80.4535 10.43 80.5748 10.542C80.6962 10.6447 80.7708 10.7847 80.7988 10.962C80.8268 11.13 80.7942 11.3167 80.7008 11.522L77.2988 19.292C77.1775 19.5534 77.0468 19.7307 76.9068 19.824C76.7668 19.9174 76.5848 19.964 76.3608 19.964ZM84.3633 17.472C83.9619 17.472 83.5373 17.43 83.0893 17.346C82.6413 17.262 82.2399 17.1174 81.8853 16.912C81.7359 16.8187 81.6286 16.7114 81.5633 16.59C81.5073 16.4594 81.4839 16.3334 81.4933 16.212C81.5119 16.0814 81.5586 15.9694 81.6333 15.876C81.7173 15.7827 81.8199 15.722 81.9413 15.694C82.0719 15.666 82.2119 15.6894 82.3613 15.764C82.7346 15.9414 83.0846 16.0674 83.4113 16.142C83.7379 16.2074 84.0599 16.24 84.3773 16.24C84.8253 16.24 85.1566 16.1654 85.3713 16.016C85.5953 15.8574 85.7073 15.652 85.7073 15.4C85.7073 15.1854 85.6326 15.022 85.4833 14.91C85.3433 14.7887 85.1286 14.7 84.8393 14.644L83.4393 14.378C82.8606 14.266 82.4173 14.056 82.1093 13.748C81.8106 13.4307 81.6613 13.0247 81.6613 12.53C81.6613 12.082 81.7826 11.6947 82.0253 11.368C82.2773 11.0414 82.6226 10.7894 83.0613 10.612C83.4999 10.4347 84.0039 10.346 84.5733 10.346C84.9839 10.346 85.3666 10.3927 85.7213 10.486C86.0853 10.57 86.4353 10.7054 86.7713 10.892C86.9113 10.9667 87.0046 11.0647 87.0513 11.186C87.1073 11.3074 87.1213 11.4334 87.0933 11.564C87.0653 11.6854 87.0093 11.7974 86.9253 11.9C86.8413 11.9934 86.7339 12.054 86.6033 12.082C86.4819 12.1007 86.3419 12.0727 86.1833 11.998C85.8939 11.8487 85.6139 11.7414 85.3433 11.676C85.0819 11.6107 84.8299 11.578 84.5873 11.578C84.1299 11.578 83.7893 11.6574 83.5653 11.816C83.3506 11.9747 83.2433 12.1847 83.2433 12.446C83.2433 12.642 83.3086 12.8054 83.4393 12.936C83.5699 13.0667 83.7706 13.1554 84.0413 13.202L85.4413 13.468C86.0479 13.58 86.5053 13.7854 86.8133 14.084C87.1306 14.3827 87.2893 14.784 87.2893 15.288C87.2893 15.9694 87.0233 16.506 86.4913 16.898C85.9593 17.2807 85.2499 17.472 84.3633 17.472ZM89.5612 17.43C89.2812 17.43 89.0665 17.346 88.9172 17.178C88.7679 17.01 88.6932 16.7767 88.6932 16.478V11.34C88.6932 11.032 88.7679 10.7987 88.9172 10.64C89.0665 10.472 89.2812 10.388 89.5612 10.388C89.8412 10.388 90.0559 10.472 90.2052 10.64C90.3639 10.7987 90.4432 11.032 90.4432 11.34V16.478C90.4432 16.7767 90.3685 17.01 90.2192 17.178C90.0699 17.346 89.8505 17.43 89.5612 17.43ZM89.5612 9.08603C89.2345 9.08603 88.9779 9.0067 88.7912 8.84803C88.6139 8.68003 88.5252 8.45136 88.5252 8.16203C88.5252 7.86336 88.6139 7.6347 88.7912 7.47603C88.9779 7.31736 89.2345 7.23803 89.5612 7.23803C89.8972 7.23803 90.1539 7.31736 90.3312 7.47603C90.5085 7.6347 90.5972 7.86336 90.5972 8.16203C90.5972 8.45136 90.5085 8.68003 90.3312 8.84803C90.1539 9.0067 89.8972 9.08603 89.5612 9.08603ZM94.7676 17.472C94.3662 17.472 93.9416 17.43 93.4936 17.346C93.0456 17.262 92.6442 17.1174 92.2896 16.912C92.1402 16.8187 92.0329 16.7114 91.9676 16.59C91.9116 16.4594 91.8882 16.3334 91.8976 16.212C91.9162 16.0814 91.9629 15.9694 92.0376 15.876C92.1216 15.7827 92.2242 15.722 92.3456 15.694C92.4762 15.666 92.6162 15.6894 92.7656 15.764C93.1389 15.9414 93.4889 16.0674 93.8156 16.142C94.1422 16.2074 94.4642 16.24 94.7816 16.24C95.2296 16.24 95.5609 16.1654 95.7756 16.016C95.9996 15.8574 96.1116 15.652 96.1116 15.4C96.1116 15.1854 96.0369 15.022 95.8876 14.91C95.7476 14.7887 95.5329 14.7 95.2436 14.644L93.8436 14.378C93.2649 14.266 92.8216 14.056 92.5136 13.748C92.2149 13.4307 92.0656 13.0247 92.0656 12.53C92.0656 12.082 92.1869 11.6947 92.4296 11.368C92.6816 11.0414 93.0269 10.7894 93.4656 10.612C93.9042 10.4347 94.4082 10.346 94.9776 10.346C95.3882 10.346 95.7709 10.3927 96.1256 10.486C96.4896 10.57 96.8396 10.7054 97.1756 10.892C97.3156 10.9667 97.4089 11.0647 97.4556 11.186C97.5116 11.3074 97.5256 11.4334 97.4976 11.564C97.4696 11.6854 97.4136 11.7974 97.3296 11.9C97.2456 11.9934 97.1382 12.054 97.0076 12.082C96.8862 12.1007 96.7462 12.0727 96.5876 11.998C96.2982 11.8487 96.0182 11.7414 95.7476 11.676C95.4862 11.6107 95.2342 11.578 94.9916 11.578C94.5342 11.578 94.1936 11.6574 93.9696 11.816C93.7549 11.9747 93.6476 12.1847 93.6476 12.446C93.6476 12.642 93.7129 12.8054 93.8436 12.936C93.9742 13.0667 94.1749 13.1554 94.4456 13.202L95.8456 13.468C96.4522 13.58 96.9096 13.7854 97.2176 14.084C97.5349 14.3827 97.6936 14.784 97.6936 15.288C97.6936 15.9694 97.4276 16.506 96.8956 16.898C96.3636 17.2807 95.6542 17.472 94.7676 17.472Z" fill="url(#paint1_linear_137_37601)"/>
<defs>
<linearGradient id="paint0_linear_137_37601" x1="0.675189" y1="18.2879" x2="22.5591" y2="16.6989" gradientUnits="userSpaceOnUse">
<stop stop-color="#D16BA5"/>
<stop offset="0.222568" stop-color="#BA83CA"/>
<stop offset="0.436301" stop-color="#9A9AE1"/>
<stop offset="0.673642" stop-color="#69BFF8"/>
<stop offset="0.800406" stop-color="#52CFFE"/>
<stop offset="0.956406" stop-color="#5FFBF1"/>
</linearGradient>
<linearGradient id="paint1_linear_137_37601" x1="13.1455" y1="21.7426" x2="112.477" y2="-0.222696" gradientUnits="userSpaceOnUse">
<stop stop-color="#D16BA5"/>
<stop offset="0.222568" stop-color="#BA83CA"/>
<stop offset="0.436301" stop-color="#9A9AE1"/>
<stop offset="0.673642" stop-color="#69BFF8"/>
<stop offset="0.800406" stop-color="#52CFFE"/>
<stop offset="0.956406" stop-color="#5FFBF1"/>
</linearGradient>
</defs>
</svg>
