<svg width="46" height="46" viewBox="0 0 46 46" fill="none" xmlns="http://www.w3.org/2000/svg">
<path fill-rule="evenodd" clip-rule="evenodd" d="M23.1186 45.2411C35.3409 45.2411 45.249 35.333 45.249 23.1108C45.249 10.8886 35.3409 0.980469 23.1186 0.980469C10.8963 0.980469 0.988281 10.8886 0.988281 23.1108C0.988281 35.333 10.8963 45.2411 23.1186 45.2411ZM30.0225 11.2897C30.3586 10.096 29.2002 9.39014 28.1422 10.1439L13.3737 20.6649C12.2263 21.4823 12.4068 23.1108 13.6447 23.1108H17.5337V23.0807H25.1131L18.9373 25.2597L16.2147 34.9319C15.8787 36.1256 17.037 36.8315 18.095 36.0777L32.8636 25.5567C34.011 24.7393 33.8304 23.1108 32.5925 23.1108H26.695L30.0225 11.2897Z" fill="#77ED91"/>
</svg>
