<svg width="20" height="21" viewBox="0 0 20 21" fill="none" xmlns="http://www.w3.org/2000/svg">
<g clip-path="url(#clip0_137_37642)">
<g clip-path="url(#clip1_137_37642)">
<path fill-rule="evenodd" clip-rule="evenodd" d="M10.0684 0.558594C4.54555 0.558594 0.0683594 5.03579 0.0683594 10.5587C0.0683594 16.0815 4.54555 20.5586 10.0684 20.5586C15.5913 20.5586 20.0684 16.0815 20.0684 10.5587C20.0684 5.03579 15.5913 0.558594 10.0684 0.558594ZM12.1029 7.66142L11.0763 5.60809C10.5221 4.49392 9.61209 4.49392 9.05209 5.60809L8.02542 7.66142C7.88542 7.94725 7.51209 8.22142 7.20292 8.27392L5.34209 8.58309C4.15209 8.78142 3.87792 9.64475 4.72959 10.4964L6.17625 11.9431C6.42125 12.1881 6.55542 12.6606 6.47959 12.9989L6.06542 14.7898C5.73875 16.2014 6.49709 16.7556 7.74542 16.0148L9.48959 14.9823C9.81042 14.7956 10.3296 14.7956 10.6446 14.9823L12.3888 16.0148C13.6429 16.7556 14.3954 16.2073 14.0688 14.7898L13.6546 12.9989C13.5788 12.6606 13.7129 12.1881 13.9579 11.9431L15.4046 10.4964C16.2621 9.64475 15.9821 8.78142 14.7921 8.58309L12.9313 8.27392C12.6163 8.22142 12.2429 7.94725 12.1029 7.66142Z" fill="#F6BB42"/>
</g>
</g>
<defs>
<clipPath id="clip0_137_37642">
<rect width="20" height="20" fill="white" transform="translate(0 0.558594)"/>
</clipPath>
<clipPath id="clip1_137_37642">
<rect width="20" height="20" fill="white" transform="translate(0 0.558594)"/>
</clipPath>
</defs>
</svg>
